<svg width="1280" height="720" viewBox="0 0 1280 720" fill="none" xmlns="http://www.w3.org/2000/svg">
  <defs>
    <linearGradient id="bg" x1="0" y1="0" x2="0" y2="720" gradientUnits="userSpaceOnUse">
      <stop stop-color="#0B1220"/>
      <stop offset="1" stop-color="#101B31"/>
    </linearGradient>
  </defs>
  <rect width="1280" height="720" fill="url(#bg)"/>
  <rect x="24" y="20" width="1232" height="64" rx="14" fill="#131E33" stroke="#334155"/>
  <text x="44" y="58" fill="#E5E7EB" font-family="Arial" font-size="22" font-weight="700">ZDZCode Inventory</text>
  <rect x="388" y="36" width="114" height="34" rx="17" fill="#144E4B"/>
  <text x="418" y="58" fill="#2DD4BF" font-family="Arial" font-size="14" font-weight="700">Categories</text>
  <rect x="510" y="36" width="100" height="34" rx="17" fill="#111A2B" stroke="#334155"/>
  <text x="540" y="58" fill="#94A3B8" font-family="Arial" font-size="14" font-weight="700">Products</text>
  <rect x="1148" y="34" width="84" height="38" rx="19" fill="#111A2B" stroke="#334155"/>
  <text x="1174" y="58" fill="#E5E7EB" font-family="Arial" font-size="13" font-weight="700">Light</text>

  <text x="40" y="126" fill="#E5E7EB" font-family="Arial" font-size="32" font-weight="700">Categories</text>
  <text x="40" y="152" fill="#94A3B8" font-family="Arial" font-size="14">Manage category records used by products.</text>

  <rect x="40" y="176" width="1200" height="108" rx="16" fill="#131E33" stroke="#334155"/>
  <text x="60" y="208" fill="#E5E7EB" font-family="Arial" font-size="18" font-weight="700">Create category</text>
  <rect x="60" y="226" width="410" height="40" rx="10" fill="#0F1726" stroke="#334155"/>
  <text x="74" y="251" fill="#64748B" font-family="Arial" font-size="13">Name (min 5)</text>
  <rect x="482" y="226" width="410" height="40" rx="10" fill="#0F1726" stroke="#334155"/>
  <text x="496" y="251" fill="#64748B" font-family="Arial" font-size="13">Description</text>
  <rect x="904" y="226" width="108" height="40" rx="20" fill="#2DD4BF"/>
  <text x="941" y="251" fill="#05201D" font-family="Arial" font-size="14" font-weight="700">Save</text>

  <rect x="40" y="304" width="1200" height="376" rx="16" fill="#131E33" stroke="#334155"/>
  <rect x="60" y="330" width="1160" height="38" rx="8" fill="#0F1726"/>
  <text x="76" y="354" fill="#94A3B8" font-family="Arial" font-size="13" font-weight="700">ID</text>
  <text x="196" y="354" fill="#94A3B8" font-family="Arial" font-size="13" font-weight="700">Name</text>
  <text x="486" y="354" fill="#94A3B8" font-family="Arial" font-size="13" font-weight="700">Description</text>
  <text x="1030" y="354" fill="#94A3B8" font-family="Arial" font-size="13" font-weight="700">Actions</text>

  <rect x="60" y="384" width="1160" height="52" rx="8" fill="#111A2B"/>
  <text x="76" y="416" fill="#94A3B8" font-family="Arial" font-size="14">1</text>
  <text x="196" y="416" fill="#E5E7EB" font-family="Arial" font-size="14">Bebidas Frias</text>
  <text x="486" y="416" fill="#94A3B8" font-family="Arial" font-size="14">Itens gelados</text>
  <rect x="1022" y="394" width="78" height="30" rx="15" fill="#111A2B" stroke="#334155"/>
  <text x="1044" y="413" fill="#E5E7EB" font-family="Arial" font-size="12" font-weight="700">Edit</text>
  <rect x="1110" y="394" width="90" height="30" rx="15" fill="#111A2B" stroke="#7F1D1D"/>
  <text x="1135" y="413" fill="#F87171" font-family="Arial" font-size="12" font-weight="700">Delete</text>
</svg>
